<svg width="9" height="14" viewBox="0 0 9 14" fill="none" xmlns="http://www.w3.org/2000/svg">
<path d="M7.23214 0.192383H1.76786C0.793928 0.192383 0 0.847098 0 1.65025V12.3059C0 13.1091 0.793928 13.7638 1.76786 13.7638H7.23214C8.20607 13.7638 9 13.1091 9 12.3059V1.65025C9 0.847098 8.20929 0.192383 7.23214 0.192383ZM3.83464 0.791434H5.19107C5.34857 0.791434 5.47393 0.910714 5.47393 1.0565C5.47393 1.20229 5.34857 1.32157 5.19107 1.32157H3.83464C3.67714 1.32157 3.55179 1.20229 3.55179 1.0565C3.55179 0.910714 3.67714 0.791434 3.83464 0.791434ZM2.55214 0.751674C2.75464 0.751674 2.92179 0.886858 2.92179 1.0565C2.92179 1.22614 2.75464 1.35868 2.55214 1.35868C2.34964 1.35868 2.1825 1.22349 2.1825 1.05385C2.1825 0.884208 2.34643 0.751674 2.55214 0.751674ZM4.51286 12.8387C4.185 12.8387 3.92143 12.6214 3.92143 12.351C3.92143 12.0806 4.185 11.8633 4.51286 11.8633C4.84071 11.8633 5.10429 12.0806 5.10429 12.351C5.10429 12.6214 4.84071 12.8387 4.51286 12.8387ZM7.97143 11.577H1.03179V1.95773H7.97143V11.577Z" fill="white"/>
</svg>
